<svg width="148" height="148" viewBox="0 0 148 148" fill="none" xmlns="http://www.w3.org/2000/svg">
<circle cx="74" cy="74" r="74" fill="#E4E4E4"/>
<path d="M82.9531 72.8142H64.7969C64.2446 72.8142 63.7969 72.3665 63.7969 71.8142V20.0434C63.7969 19.4911 64.2446 19.0434 64.7969 19.0434H82.9531C83.5054 19.0434 83.9531 19.4911 83.9531 20.0434V71.8142C83.9531 72.3665 83.5054 72.8142 82.9531 72.8142Z" stroke="#039E00" stroke-width="3" stroke-linecap="round"/>
<path d="M73.875 128V86.9644" stroke="#039E00" stroke-width="3"/>
<path d="M100.75 75.6442L99.9356 77.9083L99.1212 80.1723L97.4924 82.4363L94.2348 84.7004L91.7917 85.8324L87.7197 86.9644H85.2765H81.2045H60.0303" stroke="#039E00" stroke-width="3"/>
<path d="M47 75.6442L47.8144 77.9083L48.6288 80.1723L50.2576 82.4363L53.5152 84.7004L55.9583 85.8324L60.0303 86.9644H62.4735H66.5455H87.7197" stroke="#039E00" stroke-width="3"/>
</svg>
