<svg width="310" height="110" viewBox="0 0 310 110" fill="none" xmlns="http://www.w3.org/2000/svg">
<path d="M1 0.5H0.5V1V44.2C0.5 47.951 0.70209 51.4388 1.10736 54.6624L1.10886 54.6743L1.11094 54.6862C1.6537 57.7892 2.53562 60.824 3.75606 63.7903L3.75662 63.7916L17.0327 95.7916L17.0329 95.7921C18.655 99.6896 20.4869 102.933 22.5341 105.511C24.6665 108.196 27.9163 109.5 32.1787 109.5H49.8802C54.1426 109.5 57.3925 108.196 59.5248 105.511C61.5721 102.933 63.404 99.6896 65.026 95.7921L65.0262 95.7916L78.3023 63.7916L78.3029 63.7903C79.5247 60.8206 80.3404 57.7816 80.7489 54.6739C81.2895 51.4453 81.5589 47.9536 81.5589 44.2V1V0.5H81.0589H79.0474H78.5474V1V44.2C78.5474 47.6401 78.2813 50.945 77.75 54.1153C77.2193 57.1488 76.4242 59.9802 75.3661 62.6108C75.3658 62.6116 75.3654 62.6125 75.3651 62.6134L62.091 94.6084L62.0909 94.6083L62.0865 94.6196C60.7574 98.0556 59.2343 100.949 57.5218 103.306L57.5186 103.311C56.0341 105.402 53.535 106.5 49.8802 106.5H32.1787C28.5337 106.5 25.9588 105.407 24.3376 103.308C22.7574 100.948 21.3011 98.0544 19.9724 94.6196L19.9725 94.6196L19.9679 94.6084L6.69385 62.6134C6.69352 62.6126 6.69319 62.6117 6.69286 62.6109C5.6348 59.9804 4.83969 57.1491 4.30897 54.1156C3.77763 50.9452 3.51153 47.6402 3.51153 44.2V1V0.5H3.01153H1ZM193.354 56.4861L193.355 56.4965L193.358 56.5068C194.019 59.5337 194.352 62.8308 194.352 66.4V72.1H116.902V66.4C116.902 62.8286 117.168 59.5279 117.697 56.4965C118.363 53.4548 119.16 50.6143 120.089 47.9743L132.958 15.1866C132.959 15.1857 132.959 15.1848 132.959 15.1839C134.289 11.8782 135.747 9.11584 137.327 6.88945L137.328 6.88955L137.335 6.87846C138.818 4.66714 141.441 3.50001 145.368 3.50001H165.081C168.725 3.50001 171.223 4.65759 172.712 6.87845L172.712 6.87855L172.72 6.88945C174.302 9.11863 175.828 11.9513 177.294 15.3958L177.754 15.2L177.294 15.3959L191.167 47.981C192.093 50.615 192.822 53.4497 193.354 56.4861ZM194.352 109V109.5H194.852H196.863H197.363V109V66.4C197.363 62.6421 197.026 59.2096 196.349 56.1051C195.807 52.8804 194.996 49.7879 193.913 46.8283L193.909 46.8161L193.904 46.8041L180.026 14.2079C180.026 14.2076 180.026 14.2073 180.025 14.207C178.407 10.3181 176.647 7.08249 174.741 4.50919C172.867 1.79211 169.59 0.5 165.081 0.5H145.368C140.725 0.5 137.32 1.79187 135.311 4.50231C133.402 7.07872 131.706 10.2528 130.219 14.0163L130.219 14.0173L117.345 46.8173L117.345 46.8173L117.341 46.8283C116.259 49.7852 115.381 52.875 114.706 56.0975L114.704 56.1056L114.703 56.1139C114.16 59.2139 113.891 62.6433 113.891 66.4V109V109.5H114.391H116.402H116.902V109V75.1H194.352V109ZM237.389 109.5H237.889V109V70.1H278.827C285.158 70.1 290.314 69.4313 294.276 68.0734C298.348 66.7231 301.512 64.8873 303.731 62.5437L303.736 62.5386L303.74 62.5332C305.941 60.0714 307.454 57.1984 308.278 53.9219L308.279 53.9173C309.094 50.541 309.5 46.9013 309.5 43V28.2C309.5 24.2988 309.094 20.659 308.279 17.2827C307.456 13.8745 305.945 10.9323 303.74 8.46676C301.523 5.98616 298.358 4.08083 294.282 2.72865C290.316 1.23505 285.157 0.5 278.827 0.5H235.378H234.878V1V109V109.5H235.378H237.389ZM292.957 65.3237L292.952 65.3254C289.401 66.502 284.7 67.1 278.827 67.1H237.889V3.50001H278.827C284.696 3.50001 289.392 4.16406 292.936 5.46921L292.946 5.47297L292.957 5.47628C296.651 6.65697 299.448 8.34972 301.385 10.5319C303.337 12.7322 304.64 15.3206 305.293 18.3068L305.295 18.3169L305.298 18.3269C306.09 21.347 306.488 24.6372 306.488 28.2V43C306.488 46.5629 306.09 49.853 305.298 52.8731L305.296 52.8808L305.294 52.8886C304.643 55.7368 303.343 58.2592 301.39 60.462C299.453 62.5138 296.655 64.142 292.957 65.3237Z" fill="black" stroke="black"/>
</svg>
